<svg xmlns="http://www.w3.org/2000/svg" width="190" height="68" viewBox="0 0 190 68">
    <g fill="#1A1919" fill-rule="evenodd">
        <path d="M80.041 59.961c-.477.723-1.143 1.084-2.002 1.084-.984 0-1.748-.445-2.295-1.338-.482-.781-.723-1.741-.723-2.88 0-.924.206-1.703.616-2.334.474-.729 1.142-1.094 2.002-1.094.982 0 1.75.453 2.304 1.357.475.776.713 1.723.713 2.842 0 .944-.205 1.732-.615 2.363zm-1.436 5.069c-2.65-1.231-4.169-1.95-4.56-2.158-.859-.45-1.717-.899-2.568-1.348-.907-.533-1.577-1.104-2.012-1.709-.541-.755-.811-1.676-.811-2.764 0-.989.211-1.822.635-2.5.469-.748 1.094-1.123 1.875-1.123 1.1 0 1.994.488 2.686 1.465-.17.261-.323.637-.455 1.128-.133.491-.2.913-.2 1.265 0 1.374.403 2.47 1.211 3.291.826.846 1.955 1.269 3.389 1.269 1.334 0 2.441-.43 3.32-1.289.905-.885 1.358-2.018 1.358-3.398 0-1.368-.401-2.464-1.202-3.291-.82-.846-1.947-1.27-3.378-1.27-.717 0-1.446.202-2.188.606-.58.312-.99.625-1.23.937-.293-.469-.727-.846-1.299-1.133a3.782 3.782 0 0 0-1.709-.41c-1.199 0-2.246.424-3.145 1.27-.97.912-1.455 2.06-1.455 3.447 0 1.569.656 2.949 1.973 4.14.82.743 2.183 1.596 4.092 2.559-.399-.078-1.053-.117-1.963-.117-.547 0-.791.351-.733 1.055l.196.048a.755.755 0 0 1 .605-.293c1.158 0 2.246.104 3.262.313.48.098 1.012.248 1.592.449.343.123.89.336 1.64.635 1.172.475 1.953.846 2.344 1.113l.098-.127c-.106-1.002-.561-1.689-1.368-2.06zM93.936 56.661c0-2.708-1.241-4.063-3.721-4.063-1.192 0-2.192.4-2.998 1.201-.737.717-1.104 1.511-1.104 2.383 0 .469.137.902.41 1.299.313.456.709.683 1.192.683l.098-.136c-.079-.352-.118-.84-.118-1.465 0-2.103.793-3.154 2.383-3.154.977 0 1.617.41 1.924 1.23.221.612.324 1.814.312 3.604v3.144c.012 3.184-.859 4.776-2.617 4.776-.834 0-1.484-.356-1.953-1.065-.39-.586-.586-1.264-.586-2.031 0-.82.065-1.449.196-1.885l-.196-.059c-1.054.547-1.582 1.323-1.582 2.325 0 .898.328 1.683.987 2.353.748.762 1.74 1.143 2.978 1.143 1.711 0 2.916-.668 3.613-2.002.52-1.016.782-2.524.782-4.522v-3.759M110.396 59.961c-.474.723-1.142 1.084-2.001 1.084-.983 0-1.749-.445-2.295-1.338-.481-.781-.723-1.741-.723-2.88 0-.924.205-1.703.615-2.334.477-.729 1.143-1.094 2.002-1.094.985 0 1.752.453 2.305 1.357.476.776.713 1.723.713 2.842 0 .944-.205 1.732-.616 2.363zm-1.435 5.069c-2.648-1.231-4.17-1.95-4.561-2.158l-2.568-1.348c-.904-.533-1.574-1.104-2.012-1.709-.539-.755-.81-1.676-.81-2.764 0-.989.213-1.822.635-2.5.468-.748 1.093-1.123 1.875-1.123 1.101 0 1.996.488 2.685 1.465-.168.261-.32.637-.453 1.128-.135.491-.201.913-.201 1.265 0 1.374.404 2.47 1.211 3.291.828.846 1.957 1.269 3.388 1.269 1.336 0 2.442-.43 3.321-1.289.906-.885 1.357-2.018 1.357-3.398 0-1.368-.4-2.464-1.201-3.291-.82-.846-1.945-1.27-3.379-1.27-.715 0-1.445.202-2.187.606-.579.312-.989.625-1.231.937-.293-.469-.725-.846-1.299-1.133a3.776 3.776 0 0 0-1.709-.41c-1.197 0-2.246.424-3.144 1.27-.969.912-1.455 2.06-1.455 3.447 0 1.569.658 2.949 1.972 4.14.821.743 2.186 1.596 4.092 2.559-.396-.078-1.051-.117-1.963-.117-.547 0-.791.351-.732 1.055l.195.048a.761.761 0 0 1 .606-.293c1.16 0 2.246.104 3.261.313.483.098 1.014.248 1.592.449.346.123.893.336 1.641.635 1.172.475 1.953.846 2.343 1.113l.098-.127c-.103-1.002-.558-1.689-1.367-2.06zM117.074 61.28c.594.39 1.381.586 2.364.586 1.126 0 2.078-.391 2.851-1.172.703-.709 1.055-1.504 1.055-2.383 0-1.295-.67-2.379-2.012-3.252l-1.406-.879c-.664-.488-.996-.924-.996-1.308 0-.397.238-.709.713-.938l-.059-.176c-.488 0-.924.114-1.309.342-.455.268-.683.632-.683 1.094 0 .385.267.768.801 1.152.546.346 1.097.691 1.65 1.035 1.121.73 1.68 1.814 1.68 3.252 0 .658-.188 1.221-.567 1.69-.422.527-.998.791-1.728.791-.539 0-.989-.199-1.348-.596a1.826 1.826 0 0 1-.498-1.27c0-.501.072-.962.215-1.386.008-.039-.006-.081-.039-.127-.41 0-.785.185-1.127.556-.342.372-.514.759-.514 1.163 0 .794.321 1.403.957 1.826"/>
        <g>
            <path d="M11.632 23.731c.064-2.893.129-13.758.129-14.818.772 0 .643-.162 1.48-.162 0-.385.032-.16.032-.609-1.835.128-3.057 0-4.923.128.032.353.064.321.096.578.483 0 1.03.097 1.352.097v14.689H4.166V9.008c.225-.063 1.512 0 1.512-.77v-.096c-1.899 0-3.926 0-5.116.128.224.546.482.675.836.675.225 0 .483-.065.772-.097v14.305c0 .417-.321.385-.547.385h-.225c-.193 0-.354 0-.515.096 0 .129.032.226.032.322 0 .129-.032.257-.032.322 0 .16.032.192.258.192.837 0 2.285-.032 3.411-.032 2.124 0 4.216.032 6.372.097h.579c.837 0 1.351.129 1.351.836 0 .482-.256.835-.836.835-.997 0-2.06-.514-3.186-.514-.611 0-2.606.418-2.606 1.511 0 .161.096.322.289.45.064-.032.161-.032.193-.097.45-.836 1.126-1.094 1.963-1.094 1.191 0 2.478.419 3.669.419.869 0 2.092-.29 2.092-1.478 0-1.865-2.414-1.543-2.8-1.672M24.601 15.727c-1.706.032-3.316.032-4.924.097-.032-.355-.032-.612-.032-.965 0-.867.127-1.768.127-2.7 0-1.221.387-3.311 2.35-3.408 1.963 0 2.543 3.504 2.543 5.755 0 .482-.032.9-.064 1.221zm-5.021.707c.129-.064 1.126-.064 2.349-.064h3.508c1.062 0 .836-1.286.836-1.993 0-4.275-1.319-6.267-4.054-6.267-3.026 0-4.57 2.635-4.57 9.192 0 3.954.418 4.821 1.03 5.528a4.43 4.43 0 0 0 3.379 1.576c1.609 0 4.119-1.222 4.119-3.503 0-.194-.16-.45-.708-.45-.322 0-.515.385-.676.739-.097.417-.418 2.442-2.8 2.442-2.735 0-2.477-3.985-2.477-4.242 0-.998.032-2.058.064-2.958zM43.779 10.938c.065.963.226 3.697.226 6.171 0 1.736-.065 3.376-.29 4.115-.161.481-.483 2.442-2.285 2.539-1.931-.064-2.284-2.154-2.413-2.764a20.003 20.003 0 0 1-.516-4.565c0-1.318.129-2.604.354-3.921.226-1.543.741-3.697 2.994-3.697 1.19 0 1.866 1.061 1.93 2.122zm-5.374-.804c-.032-.321-.032-.61-.032-.932 0-1.929.644-5.273 2.8-5.273.45 0 1.223.226 2.284.226 1.771 0 4.764-.835 4.764-3.825V.009c-1.031.449-.966 2.089-2.447 2.249-.933.097-1.866.194-2.67.194-2.929.095-4.892 2.443-5.279 4.95-.514 3.375-.9 5.882-.9 10.029 0 2.315.418 6.975 4.248 6.975 4.119 0 4.28-3.118 4.312-4.886 0-.61.193-3.183.193-5.368 0-2.828-.579-6.107-3.797-6.107-2.156 0-2.929 1.318-3.476 2.089zM56.201 21.096c-1.706-3.923-3.379-7.812-4.635-11.991.998 0 1.674-.032 1.674-.386 0-.128-.032-.289-.096-.577h-3.186c-.708 0-2.06-.161-2.06.417 0 .546.804.578 1.288.578.224 0 .45-.032.708-.032.224.451.418.9.579 1.35 1.48 4.212 3.057 8.616 4.762 12.89.065.225.097.483.097.74-.45 1.928-1.448 3.6-3.218 4.789-.643.45-.804 1.029-.804 1.705.032.384-.097 1.059.321 1.059.869 0 3.54-1.575 6.694-15.14a714.19 714.19 0 0 0 1.963-6.621c.258-.869.29-1.221.966-1.221.225 0 .579.063.772.063.386 0 .515-.16.579-.674-.386-.032-.675-.064-.965-.064-1.03 0-1.931.129-2.832.129-.644 0-1.77-.194-1.77.481 0 .417 1.641.322 2.316.354-.804 4.211-2.188 8.099-3.153 12.151M73 23.505c0-1.091-.064-6.845-.064-10.864 0-2.025.031-3.601.064-3.922.289 0 1.094.129 1.094-.192 0-.065-.033-.097-.033-.161 0-.096.033-.192.064-.353-.643 0-2.928-.032-5.182-.032-2.252 0-4.504.032-5.019.064.064.546.064.642.258.642.449 0 1.447-.031 1.929-.031v8.324c0 1.061.227 6.333-.642 6.333-.418 0-.676-.738-1.256-.738-.385 0-.966.513-.966.995 0 .643.935.965 1.482.965 2.285 0 2.22-2.733 2.22-4.822 0-2.765-.064-8.614-.064-10.479v-.578c.611-.129 1.545-.226 2.445-.226.805 0 1.609.065 2.027.226v2.25c0 2.924-.064 5.818-.064 8.711 0 1.286.033 2.571.064 3.856-.804.193-.869-.032-.869.997 1.158 0 2.285 0 3.379-.032.291 0 .42-.065.42-.385 0-.193.096-.548-.387-.548-.193 0-.386.033-.546.033-.129 0-.258 0-.354-.033M85.453 16.948c0 1.446.32 6.654-2.478 6.88-2.51 0-2.704-3.698-2.704-6.076v-1.286c0-.449-.033-1.06-.033-1.735 0-2.572.258-6.269 2.608-6.269 2.125 0 2.607 4.79 2.607 8.486zm-2.607 7.843c4.054-.127 4.601-4.628 4.601-7.006 0-.869-.064-1.448-.064-1.448 0-.32.033-.868.033-1.543 0-2.603-.418-7.039-4.635-7.039-4.279 0-4.537 5.144-4.537 7.714v.868c0 .258-.064.901-.064 1.737 0 2.474.513 6.59 4.666 6.717zM100.479 8.784a2.933 2.933 0 0 1 1.193-.257c1.767 0 3.314 1.414 3.314 3.696 0 .868-.291 1.64-.966 2.348-.709.995-1.899.995-3.346 1.156-.065-2.347-.129-4.66-.195-6.943zm.033 15.011v-.257c-.065-.996.162-4.307.162-5.946 0-.997.064-1.19 1.832-1.19 1.996 0 3.058 1.35 3.154 3.471-.129 3.375-1.64 3.697-1.994 3.729-.676.129-1.48.258-2.285.258-.289 0-.578-.032-.869-.065zm-3.088.354c.578.353 1.222.386 1.832.386 1.191 0 2.351-.129 3.51-.129h.449c2.123 0 4.152-1.222 4.152-4.243 0-1.96-1.094-3.439-2.638-4.468 1.126-1.156 1.607-2.315 1.607-3.279 0-3.182-1.963-4.435-4.762-4.435-1.16 0-2.285.161-3.412.289-.191 0-.353.225-.611.353.129.257.226.514.322.772h1.031c0 3.15.032 6.235.032 9.289 0 1.543 0 3.054-.032 4.597-1.353.224-1.416.289-1.48.868zM127.221 1.873h-10.104c-.42 0-.676.161-.74.354.129.996.225 3.374.643 3.374 1.062 0 .902-1.767.998-2.828h3.378c0 3.536.034-.546.034 15.236 0 2.444 0 4.598-.034 5.496h-1.126c-.225 0-.418.194-.418.451 0 .74 1.513.482 3.605.482h.996-.031a.488.488 0 0 0 .418-.482c0-.257-.194-.451-.418-.451h-1.192V2.741c1.321 0 2.608-.033 3.315-.033.355.355-.354 2.893.967 2.893.418 0 .547-2.378.676-3.374-.098-.193-.323-.354-.774-.354h-.193M136.65 10.938c.065.963.227 3.697.227 6.171 0 1.736-.064 3.376-.291 4.115-.16.481-.482 2.442-2.285 2.539-1.93-.064-2.283-2.154-2.412-2.764a19.947 19.947 0 0 1-.516-4.565c0-1.318.129-2.604.354-3.921.226-1.543.74-3.697 2.994-3.697 1.189 0 1.865 1.061 1.929 2.122zm-5.373-.804c-.033-.321-.033-.61-.033-.932 0-1.929.645-5.273 2.801-5.273.449 0 1.223.226 2.283.226 1.772 0 4.764-.835 4.764-3.825V.009c-1.029.449-.965 2.089-2.446 2.249-.933.097-1.867.194-2.671.194-2.928.095-4.891 2.443-5.278 4.95-.515 3.375-.9 5.882-.9 10.029 0 2.315.418 6.975 4.248 6.975 4.119 0 4.279-3.118 4.312-4.886 0-.61.192-3.183.192-5.368 0-2.828-.578-6.107-3.797-6.107-2.156 0-2.928 1.318-3.475 2.089zM144.951 6.245c.774 0 1.514-.58 1.514-1.447 0-.837-.289-1.093-1.158-1.093-.838 0-1.416.611-1.416 1.447 0 .642.384 1.06 1.06 1.093zm1.192 17.647c0-3.183-.032-6.622-.032-9.997 0-1.672 0-3.376.032-4.982h1.287c.162-.097.258-.226.258-.386 0-.161-.129-.289-.452-.289-1.222 0-2.476.032-3.668.064-.193 0-.386-.032-.515-.032-.225 0-.354.063-.354.289 0 .321.194.354.516.354H144.115v14.979c-.482.032-1.351-.097-1.351.289 0 .418 1.769.257 2.252.257.675 0 2.576.129 2.576-.289 0-.321-.291-.257-.451-.257h-.998zM159.37 23.505c0-1.091-.07-6.845-.07-10.864 0-2.025.04-3.601.07-3.922.29 0 1.09.129 1.09-.192 0-.065-.03-.097-.03-.161 0-.096.03-.192.07-.353-.65 0-2.93-.032-5.186-.032-2.251 0-4.505.032-5.019.064.064.546.064.642.256.642.451 0 1.449-.031 1.931-.031v8.324c0 1.061.225 6.333-.642 6.333-.42 0-.678-.738-1.256-.738-.387 0-.965.513-.965.995 0 .643.932.965 1.481.965 2.283 0 2.218-2.733 2.218-4.822 0-2.765-.062-8.614-.062-10.479v-.578c.611-.129 1.543-.226 2.445-.226.805 0 1.609.065 2.029.226v2.25c0 2.924-.07 5.818-.07 8.711 0 1.286.04 2.571.07 3.856-.806.193-.871-.032-.871.997 1.161 0 2.281 0 3.381-.032.29 0 .42-.065.42-.385 0-.193.09-.548-.39-.548-.19 0-.39.033-.55.033-.12 0-.25 0-.35-.033M166.16 6.245c.77 0 1.51-.58 1.51-1.447 0-.837-.29-1.093-1.16-1.093-.83 0-1.41.611-1.41 1.447 0 .642.38 1.06 1.06 1.093zm1.19 17.647c0-3.183-.03-6.622-.03-9.997 0-1.672 0-3.376.03-4.982h1.29c.16-.097.25-.226.25-.386 0-.161-.12-.289-.45-.289-1.22 0-2.48.032-3.67.064-.19 0-.38-.032-.51-.032-.23 0-.36.063-.36.289 0 .321.2.354.52.354H165.32v14.979c-.48.032-1.35-.097-1.35.289 0 .418 1.77.257 2.25.257.68 0 2.58.129 2.58-.289 0-.321-.29-.257-.45-.257h-1zM179.74 19.166c-.13.386.19 4.179-2.64 4.565-2.25-.129-2.45-4.5-2.45-6.461v-.9c0-.546-.06-1.447-.06-2.443 0-2.411.42-5.849 3.25-5.849 1.26 0 2 .898 2 1.543 0 .224-.04.417-.04.61 0 .707-.16 1.928.61 1.928.46 0 .62-.289.71-.674 0-1.126-.13-2.283-.13-3.375-.12-.065-.22-.065-.32-.065-.16 0-.29.033-.45.033a.485.485 0 0 1-.38-.162c-.87-.193-1.61-.29-2.29-.29-4.47 0-4.79 4.307-4.79 7.362 0 7.746 1.77 9.45 4.34 9.45 3.54 0 3.89-3.953 3.89-5.239h-.86c-.17 0-.29 0-.39-.033M186.91 6.245c.78 0 1.52-.58 1.52-1.447 0-.837-.29-1.093-1.16-1.093-.84 0-1.42.611-1.42 1.447 0 .642.39 1.06 1.06 1.093zm1.19 17.647c0-3.183-.03-6.622-.03-9.997 0-1.672 0-3.376.03-4.982h1.29c.16-.097.26-.226.26-.386 0-.161-.13-.289-.45-.289-1.23 0-2.48.032-3.67.064-.19 0-.39-.032-.51-.032-.23 0-.36.063-.36.289 0 .321.19.354.52.354H186.08v14.979c-.49.032-1.36-.097-1.36.289 0 .418 1.77.257 2.26.257.67 0 2.57.129 2.57-.289 0-.321-.29-.257-.45-.257h-1z"/>
        </g>
    </g>
</svg>
