<svg xmlns="http://www.w3.org/2000/svg" width="34" height="36" viewBox="0 0 34 36">
    <path fill="#12ACBC" fill-rule="evenodd" d="M13.511 13.467c.334-.357.69-.736 1.162-.981a3.094 3.094 0 0 1-.257-.57l-.009-.024-.007-.032c-.566-2.751-.5-5.07-.12-6.744.214-.939.53-1.686.893-2.206.414-.592.908-.913 1.415-.921.21-.004.415.045.611.149.227.12.415.271.566.448.376.44.506 1.018.439 1.672-.062.592-.286 1.25-.629 1.92-.595 1.166-1.56 2.4-2.65 3.409.063.652.164 1.34.313 2.06.299.828.883.72 1.553.595.476-.089.982-.183 1.504-.099a3.29 3.29 0 0 1 .12-.613l.008-.026.013-.029c1.126-2.566 2.518-4.403 3.791-5.53.713-.63 1.398-1.045 1.992-1.248.677-.232 1.262-.195 1.676.101.171.123.31.287.408.49.114.234.18.468.2.7.05.584-.178 1.127-.61 1.617-.39.44-.95.838-1.615 1.177-1.153.585-2.646 1.006-4.108 1.168-.325.564-.64 1.182-.935 1.854-.234.85.3 1.111.912 1.411.436.214.9.442 1.275.824a3.1 3.1 0 0 1 .45-.424l.02-.016.03-.017c2.392-1.401 4.577-2.055 6.255-2.203.939-.082 1.732-.007 2.33.185.682.22 1.133.6 1.299 1.087v.003c.066.2.084.414.047.637a1.973 1.973 0 0 1-.243.686c-.296.504-.795.807-1.425.944-.568.123-1.25.11-1.983-.017-1.271-.217-2.72-.772-3.998-1.518-.588.262-1.197.574-1.824.939-.68.547-.398 1.08-.075 1.692.23.434.473.896.556 1.43a3.03 3.03 0 0 1 .611-.074h.033l.022.002c2.743.3 4.887 1.081 6.33 1.969.807.496 1.406 1.033 1.779 1.547.425.585.572 1.163.422 1.657-.06.204-.17.388-.329.546a1.913 1.913 0 0 1-.59.41c-.53.23-1.108.176-1.697-.091-.532-.242-1.075-.662-1.595-1.202-.903-.938-1.756-2.255-2.36-3.624a18.762 18.762 0 0 0-2.025-.335c-.859.037-.937.637-1.028 1.323-.064.489-.133 1.01-.374 1.49.166.071.343.172.534.306l.02.013.026.025c2.046 1.886 3.33 3.803 3.986 5.386.368.886.543 1.68.547 2.319.009.727-.206 1.282-.612 1.592-.167.13-.362.213-.582.246-.251.038-.49.029-.713-.024-.56-.131-.997-.52-1.32-1.09-.29-.514-.488-1.18-.598-1.93-.19-1.3-.12-2.876.18-4.347a19.064 19.064 0 0 0-1.437-1.477c-.723-.493-1.132-.055-1.602.447-.334.357-.69.737-1.162.982.093.157.18.346.257.57l.01.024.006.032c.566 2.752.501 5.071.12 6.745-.213.939-.53 1.686-.892 2.206-.415.592-.908.914-1.415.922a1.239 1.239 0 0 1-.612-.15 1.89 1.89 0 0 1-.565-.447c-.378-.442-.506-1.019-.44-1.672.062-.593.286-1.25.628-1.921.595-1.166 1.562-2.4 2.651-3.41a19.778 19.778 0 0 0-.312-2.06c-.3-.828-.885-.72-1.555-.595-.475.088-.981.182-1.503.098a3.204 3.204 0 0 1-.12.613l-.008.027-.012.028c-1.128 2.568-2.518 4.406-3.792 5.532-.713.63-1.399 1.045-1.992 1.248-.677.232-1.262.195-1.675-.101a1.289 1.289 0 0 1-.41-.49 1.971 1.971 0 0 1-.198-.7c-.05-.584.177-1.127.609-1.616.389-.441.95-.839 1.614-1.177 1.154-.586 2.646-1.006 4.11-1.169.324-.564.638-1.182.935-1.855.233-.85-.302-1.112-.914-1.412-.436-.214-.9-.441-1.274-.824-.119.139-.267.28-.45.425l-.02.016-.03.017c-2.393 1.402-4.577 2.056-6.255 2.203-.938.083-1.732.008-2.329-.184-.682-.219-1.135-.599-1.3-1.087v-.002a1.306 1.306 0 0 1-.046-.638 1.98 1.98 0 0 1 .242-.686c.296-.503.795-.807 1.424-.944.568-.123 1.25-.109 1.984.017 1.27.217 2.72.772 3.997 1.518a18.85 18.85 0 0 0 1.825-.94c.697-.564.41-1.102.081-1.715-.229-.43-.472-.884-.557-1.407a3.022 3.022 0 0 1-.617.074h-.031l-.024-.002c-2.743-.3-4.885-1.08-6.328-1.968-.809-.496-1.407-1.034-1.78-1.547-.424-.585-.572-1.163-.423-1.657.061-.203.17-.387.33-.546.182-.183.381-.32.591-.41.529-.23 1.108-.176 1.695.091.532.242 1.076.662 1.597 1.202.902.938 1.755 2.255 2.358 3.624a18.53 18.53 0 0 0 2.026.334c.857-.037.937-.636 1.027-1.323.064-.489.133-1.01.374-1.49a3.052 3.052 0 0 1-.534-.305l-.018-.014-.027-.024c-2.046-1.887-3.33-3.803-3.986-5.386-.368-.886-.543-1.68-.548-2.318-.007-.728.207-1.283.612-1.593.169-.13.363-.213.582-.246.252-.038.49-.029.714.024.56.131.997.52 1.32 1.09.29.514.489 1.181.599 1.93.19 1.3.119 2.877-.18 4.346.424.489.903.983 1.435 1.477.723.492 1.132.055 1.603-.448zm1.149.264c-.22.03-.418.11-.584.233-.166.123-.302.29-.398.494l-.279.59a1.63 1.63 0 0 1-.138.239 1.61 1.61 0 0 1-.18.207l-.464.453c-.16.157-.273.34-.337.54a1.332 1.332 0 0 0-.038.637l.115.645c.016.097.026.187.026.276 0 .088-.01.178-.026.275l-.115.644c-.038.223-.026.44.038.639.064.2.177.382.337.539l.464.453a1.505 1.505 0 0 1 .318.446l.279.59a1.254 1.254 0 0 0 .982.727l.636.089a1.486 1.486 0 0 1 .515.17l.565.31c.196.107.402.16.607.16.205 0 .41-.053.606-.16l.566-.31a1.441 1.441 0 0 1 .516-.17l.635-.089c.22-.03.417-.11.584-.234.165-.123.301-.29.398-.493l.279-.59a1.457 1.457 0 0 1 .318-.447l.464-.452c.16-.157.273-.34.336-.54.064-.199.078-.415.039-.638l-.114-.644a1.505 1.505 0 0 1-.027-.276c0-.088.009-.178.027-.275l.114-.645a1.304 1.304 0 0 0-.375-1.177l-.465-.453a1.556 1.556 0 0 1-.18-.207 1.66 1.66 0 0 1-.137-.24l-.28-.589a1.303 1.303 0 0 0-.397-.494 1.272 1.272 0 0 0-.584-.233l-.635-.089a1.505 1.505 0 0 1-.267-.06 1.488 1.488 0 0 1-.249-.11l-.566-.31a1.256 1.256 0 0 0-.606-.16c-.205 0-.411.053-.607.16l-.565.31a1.478 1.478 0 0 1-.515.17l-.636.089zM8.707 2.603a4.511 4.511 0 0 0-2.082.835 4.618 4.618 0 0 0-1.42 1.76l-.997 2.106a5.609 5.609 0 0 1-.493.85c-.186.26-.396.502-.642.743l-1.655 1.617a4.675 4.675 0 0 0-1.205 1.924 4.763 4.763 0 0 0-.135 2.278l.408 2.3c.061.346.091.668.091.984 0 .316-.03.638-.09.985l-.408 2.3a4.732 4.732 0 0 0 .135 2.277 4.656 4.656 0 0 0 1.204 1.924l1.655 1.618c.246.24.456.482.642.742.184.26.344.538.493.85l.997 2.105a4.624 4.624 0 0 0 1.42 1.762c.594.44 1.298.726 2.082.834l2.27.316c.34.048.648.118.948.217.3.1.591.228.89.392l2.02 1.106c.697.382 1.431.572 2.165.572.733 0 1.468-.19 2.165-.572l2.02-1.106a5.35 5.35 0 0 1 .89-.392c.3-.099.609-.17.947-.217l2.271-.316a4.51 4.51 0 0 0 2.082-.834 4.63 4.63 0 0 0 1.42-1.762l.998-2.105c.148-.312.309-.59.493-.85a5.55 5.55 0 0 1 .64-.742l1.657-1.618a4.668 4.668 0 0 0 1.203-1.924 4.732 4.732 0 0 0 .135-2.277l-.407-2.3a5.635 5.635 0 0 1-.092-.985c0-.316.031-.638.092-.984l.407-2.3a4.735 4.735 0 0 0-.135-2.278 4.672 4.672 0 0 0-1.203-1.924l-1.656-1.617a5.586 5.586 0 0 1-.641-.742 5.58 5.58 0 0 1-.493-.851l-.997-2.105a4.629 4.629 0 0 0-1.421-1.761 4.505 4.505 0 0 0-2.082-.835l-2.27-.316a5.26 5.26 0 0 1-.948-.217c-.3-.1-.591-.228-.89-.392L19.165.572A4.49 4.49 0 0 0 17 0c-.734 0-1.468.19-2.165.572l-2.02 1.106c-.299.164-.59.293-.89.392-.3.1-.609.17-.947.217l-2.271.316z"/>
</svg>
