<svg xmlns="http://www.w3.org/2000/svg" width="96" height="20" viewBox="0 0 96 20">
    <g fill="none" fill-rule="evenodd">
        <path fill="#50B7E6" d="M75.65 1.816C75.331 1.266 74.727 0 74.727 0s-.58 1.26-.896 1.816c-.349.615-.504 1.184-.504 1.473 0 .761.624 1.38 1.4 1.395h.027c.776-.015 1.4-.634 1.4-1.395 0-.289-.167-.892-.504-1.473z"/>
        <path fill="#FFF" d="M68.348 11.791c0 1.303-.454 2.423-1.36 3.36-.907.938-2.085 1.406-3.535 1.406-1.053 0-1.971-.257-2.755-.771-.783-.515-1.304-1.103-1.561-1.766h-.035v5.966h-.491V7.249h.49V9.51h.036a4.517 4.517 0 0 1 1.737-1.825c.748-.44 1.608-.66 2.579-.66 1.462 0 2.643.471 3.544 1.414.9.943 1.35 2.06 1.35 3.351zm-.492 0c0-1.131-.391-2.134-1.175-3.008-.784-.874-1.877-1.312-3.28-1.312-1.264 0-2.305.42-3.124 1.26-.819.84-1.228 1.86-1.228 3.06 0 1.235.421 2.263 1.263 3.086.842.823 1.89 1.234 3.14 1.234 1.24 0 2.287-.405 3.141-1.217.854-.811 1.275-1.845 1.263-3.103zm11.169 4.555h-.491V14.51h-.035c-.281.663-.76 1.172-1.439 1.526a4.74 4.74 0 0 1-2.228.532c-1.24 0-2.234-.303-2.983-.909-.9-.743-1.35-1.943-1.35-3.6v-4.8h.49v4.8c0 1.474.38 2.543 1.141 3.206.643.571 1.509.857 2.597.857 1.193 0 2.125-.326 2.798-.977.672-.652 1.009-1.56 1.009-2.726V7.26h.491v9.086zm6.48-8.857c-.783.022-1.461.234-2.034.634-.503.446-.836.923-1 1.431-.164.509-.246 1.129-.246 1.86v4.92h-.491V7.25h.491v1.645h.035c.164-.32.363-.6.597-.84.234-.24.456-.42.666-.54.211-.12.46-.22.746-.3.287-.08.506-.128.658-.145.152-.018.345-.032.579-.043v.463zm10.492 4.097l-.017.257h-9.264c.012.708.161 1.346.448 1.911.286.566.652 1.015 1.096 1.346.445.331.913.583 1.404.754a4.56 4.56 0 0 0 3.816-.369 3.988 3.988 0 0 0 1.605-1.774h.544c-.41.938-1.02 1.646-1.833 2.126s-1.711.72-2.693.72c-1.416-.011-2.585-.468-3.51-1.371-.923-.903-1.385-2.029-1.385-3.377 0-1.36.47-2.498 1.412-3.412.942-.914 2.108-1.371 3.5-1.371 1.298 0 2.421.42 3.369 1.26.947.84 1.45 1.94 1.508 3.3zm-.508-.189c-.047-1.074-.503-1.997-1.369-2.768-.865-.772-1.842-1.158-2.93-1.158-1.193 0-2.216.372-3.07 1.115-.854.743-1.316 1.68-1.386 2.811h8.755zM9.978 16V6.136H8.535l-3.44 8.23h-.056L1.6 6.136H.155V16h1.161V8.398h.048l3.178 7.534h1.05L8.77 8.398h.048V16h1.16zm3.91-.916c1.154 0 2.004-.772 2.004-1.784v-.568l-1.859.117c-1.063.061-1.616.45-1.616 1.128 0 .649.573 1.107 1.471 1.107zm-.27 1.019c-1.457 0-2.424-.869-2.424-2.126 0-1.224.947-1.949 2.701-2.051l1.997-.116v-.588c0-.875-.58-1.354-1.624-1.354-.822 0-1.437.417-1.575 1.08h-1.146c.034-1.21 1.215-2.126 2.742-2.126 1.706 0 2.805.896 2.805 2.297V16h-1.14v-1.224h-.028c-.407.787-1.305 1.327-2.307 1.327zm7.724-.035c-1.803 0-3.074-1.449-3.074-3.623 0-2.174 1.264-3.623 3.046-3.623 1.03 0 1.852.445 2.287 1.224h.027v-3.91h1.202V16h-1.146v-1.203h-.021c-.463.82-1.285 1.271-2.321 1.271zm.228-6.193c-1.244 0-2.072 1.019-2.072 2.57 0 1.559.828 2.57 2.072 2.57 1.236 0 2.065-1.032 2.065-2.57 0-1.53-.829-2.57-2.065-2.57zm7.764-.02c-1.112 0-1.913.8-1.99 1.982h3.904c-.028-1.19-.795-1.983-1.914-1.983zm1.886 4.108h1.181c-.2 1.23-1.45 2.105-2.99 2.105-2.032 0-3.31-1.387-3.31-3.595s1.285-3.65 3.254-3.65c1.927 0 3.136 1.34 3.136 3.492v.452h-5.153v.068c0 1.333.836 2.201 2.1 2.201.884 0 1.582-.417 1.782-1.073zm8.953 2.105c-1.05 0-1.872-.45-2.335-1.271h-.028V16h-1.146V6.136h1.202v3.91h.027c.45-.78 1.285-1.224 2.3-1.224 1.81 0 3.033 1.45 3.033 3.623 0 2.181-1.223 3.623-3.053 3.623zm-.235-6.193c-1.237 0-2.08 1.046-2.08 2.57 0 1.532.843 2.57 2.08 2.57 1.243 0 2.059-1.004 2.059-2.57 0-1.558-.816-2.57-2.059-2.57zm4.89 8.784c1.3 0 1.894-.499 2.508-2.16l2.826-7.608h-1.264l-1.99 5.92h-.02l-1.99-5.92h-1.285l2.653 7.116-.166.499c-.276.827-.65 1.148-1.32 1.148-.152 0-.338-.007-.47-.034v.998c.132.028.374.041.519.041z"/>
    </g>
</svg>
