<svg xmlns="http://www.w3.org/2000/svg" width="99" height="22" viewBox="0 0 99 22">
    <g fill="none" fill-rule="evenodd">
        <path d="M-7-6h114v34H-7z"/>
        <path fill="#12ACBC" d="M8.526 8.431c.189-.202.389-.417.656-.556a1.757 1.757 0 0 1-.145-.322l-.005-.014-.004-.018c-.32-1.56-.283-2.873-.068-3.822.12-.532.299-.955.504-1.25.234-.336.512-.517.798-.522a.698.698 0 0 1 .345.084c.129.069.235.154.32.254.212.25.285.577.247.948-.034.335-.16.708-.354 1.088-.336.66-.881 1.36-1.496 1.932.036.369.093.759.176 1.167.17.47.499.407.877.337.269-.05.554-.104.849-.056.009-.103.03-.218.068-.347l.004-.015.007-.016c.636-1.454 1.421-2.495 2.14-3.134.402-.357.789-.593 1.124-.707.382-.132.712-.111.946.057.097.07.175.162.23.277.065.133.101.266.113.398.028.33-.1.638-.344.915-.22.25-.536.476-.911.667-.651.332-1.494.57-2.32.662-.182.32-.36.67-.527 1.05-.132.482.17.63.515.8.246.122.509.25.72.467.066-.078.15-.158.254-.24l.011-.01.017-.008c1.35-.795 2.583-1.165 3.53-1.249.53-.046.978-.004 1.314.105.386.124.64.34.734.616v.001a.75.75 0 0 1 .026.362 1.12 1.12 0 0 1-.137.388c-.167.286-.448.458-.804.535-.32.07-.705.062-1.12-.01-.717-.122-1.534-.437-2.255-.86-.332.15-.676.326-1.03.532-.384.31-.224.613-.042.96.13.245.267.507.314.81.1-.024.213-.038.345-.042h.018l.013.001c1.548.17 2.757.613 3.572 1.116.455.28.793.585 1.004.876.24.332.323.66.238.939a.725.725 0 0 1-.185.31 1.08 1.08 0 0 1-.334.232c-.298.13-.625.1-.957-.052-.3-.136-.607-.375-.9-.681-.51-.531-.991-1.278-1.332-2.053-.355-.08-.736-.145-1.143-.19-.485.021-.53.36-.58.75-.036.277-.075.571-.211.844.093.04.193.097.301.173l.01.007.016.015c1.155 1.068 1.88 2.155 2.25 3.052.207.502.306.952.309 1.314.004.412-.117.727-.346.902a.7.7 0 0 1-.329.14 1.049 1.049 0 0 1-.402-.014c-.316-.075-.563-.295-.745-.617-.164-.292-.276-.67-.338-1.095-.106-.736-.068-1.63.102-2.463-.24-.276-.51-.557-.811-.837-.408-.28-.639-.03-.904.254-.188.202-.39.417-.656.556.053.09.102.196.146.323l.004.014.004.018c.32 1.56.283 2.873.068 3.822-.12.532-.3.955-.504 1.25-.233.336-.512.518-.798.522a.697.697 0 0 1-.345-.084 1.067 1.067 0 0 1-.32-.254c-.212-.25-.285-.577-.247-.947.035-.336.161-.709.354-1.09.336-.66.881-1.359 1.496-1.93a11.25 11.25 0 0 0-.176-1.169c-.17-.469-.5-.407-.877-.337-.269.05-.554.103-.849.056-.009.103-.03.219-.068.347l-.004.015-.007.017c-.636 1.454-1.421 2.496-2.14 3.134-.402.357-.79.593-1.124.707-.382.132-.712.111-.946-.057a.73.73 0 0 1-.23-.277 1.12 1.12 0 0 1-.113-.397c-.028-.331.1-.639.344-.916.22-.25.536-.475.911-.667.652-.332 1.493-.57 2.32-.662.183-.32.36-.67.527-1.051.132-.482-.17-.63-.516-.8-.246-.122-.508-.25-.718-.467a1.864 1.864 0 0 1-.255.24l-.011.01-.017.009c-1.35.795-2.583 1.165-3.53 1.248-.53.047-.977.005-1.314-.104-.385-.124-.64-.34-.733-.616v-.001a.743.743 0 0 1-.027-.362c.024-.145.07-.275.137-.388.167-.285.449-.457.804-.535.32-.07.705-.062 1.12.01.716.122 1.534.437 2.255.86.332-.15.676-.326 1.03-.533.393-.32.231-.625.046-.972-.13-.243-.267-.5-.315-.797-.1.023-.215.038-.348.042h-.018l-.013-.001c-1.548-.17-2.757-.613-3.571-1.116-.457-.28-.794-.585-1.005-.876-.24-.332-.322-.66-.239-.939a.735.735 0 0 1 .186-.31c.103-.104.216-.18.334-.232.298-.13.625-.1.957.052.3.136.607.375.9.681.51.531.992 1.278 1.332 2.053.355.08.736.145 1.143.19.484-.021.529-.36.58-.75.036-.277.075-.572.21-.844a1.72 1.72 0 0 1-.3-.173l-.01-.008-.016-.014c-1.155-1.069-1.879-2.155-2.25-3.052-.207-.502-.306-.952-.309-1.314-.004-.412.117-.727.346-.902a.705.705 0 0 1 .328-.14c.142-.021.277-.016.403.014.316.075.563.295.745.617.164.292.276.67.338 1.095.107.736.067 1.63-.102 2.462.24.277.51.557.81.837.409.28.64.031.905-.254zm.648.15a.71.71 0 0 0-.554.412l-.157.334a.924.924 0 0 1-.078.135.911.911 0 0 1-.102.118l-.261.257a.738.738 0 0 0-.212.667l.065.365a.914.914 0 0 1 0 .312l-.065.365a.738.738 0 0 0 .212.667l.261.257a.852.852 0 0 1 .18.253l.157.335a.706.706 0 0 0 .554.412l.36.05a.836.836 0 0 1 .29.096l.319.176c.11.06.227.09.343.09.115 0 .231-.03.342-.09l.32-.176a.812.812 0 0 1 .29-.096l.359-.05a.713.713 0 0 0 .553-.412l.158-.335a.903.903 0 0 1 .18-.253l.261-.256a.742.742 0 0 0 .212-.668l-.064-.365a.856.856 0 0 1 0-.312l.064-.365a.74.74 0 0 0-.211-.667l-.263-.257a.88.88 0 0 1-.179-.253l-.158-.334a.738.738 0 0 0-.224-.28.716.716 0 0 0-.33-.132l-.358-.05a.846.846 0 0 1-.29-.097l-.32-.175a.707.707 0 0 0-.342-.091.708.708 0 0 0-.343.09l-.319.176a.832.832 0 0 1-.29.096l-.36.05zm-3.36-6.306a2.54 2.54 0 0 0-1.174.473 2.615 2.615 0 0 0-.802.998l-.562 1.193a3.181 3.181 0 0 1-.279.482 3.183 3.183 0 0 1-.361.42l-.935.917a2.65 2.65 0 0 0-.68 1.09 2.71 2.71 0 0 0-.076 1.291l.23 1.303c.035.197.052.38.052.558 0 .18-.017.362-.052.558l-.23 1.303c-.079.451-.051.888.077 1.291.127.403.356.773.68 1.09l.934.917c.138.136.256.273.361.42.104.147.195.305.279.482l.562 1.193c.194.412.467.75.802.998.335.25.732.412 1.175.473l1.281.18c.191.026.366.066.535.122.17.057.334.13.502.222l1.14.627a2.52 2.52 0 0 0 1.222.324c.414 0 .829-.108 1.222-.324l1.14-.627c.168-.093.333-.165.502-.222.17-.056.344-.096.535-.123l1.281-.179a2.54 2.54 0 0 0 1.175-.473c.334-.248.608-.586.802-.998l.563-1.193c.083-.177.174-.335.278-.482a3.14 3.14 0 0 1 .362-.42l.934-.917c.323-.317.551-.687.68-1.09.128-.403.155-.84.076-1.29l-.23-1.304a3.206 3.206 0 0 1-.052-.558c0-.18.018-.361.052-.558l.23-1.303c.079-.45.052-.888-.077-1.291a2.649 2.649 0 0 0-.679-1.09l-.934-.916a3.162 3.162 0 0 1-.362-.421 3.165 3.165 0 0 1-.278-.482l-.563-1.193a2.62 2.62 0 0 0-.802-.998 2.537 2.537 0 0 0-1.175-.473l-1.281-.18a2.958 2.958 0 0 1-.535-.122 2.986 2.986 0 0 1-.502-.222l-1.14-.627A2.526 2.526 0 0 0 10.495.8c-.414 0-.828.108-1.222.324l-1.14.627a2.997 2.997 0 0 1-.502.222c-.17.056-.344.096-.535.123l-1.281.179z"/>
        <g fill="#47484D">
            <path d="M39.807 10.679c0 .137.015.458.015.871-.015 1.238-.045 3.362-.26 4.202-.183.734-1.07 1.284-1.606 1.284-1.468 0-1.53-1.956-1.575-2.415-.015-.106-.015-.336-.015-.626 0-.764.03-1.926.06-2.384.108-1.68-.183-4.89 1.82-4.89.781 0 1.316.78 1.408 1.406.076.825.153 2.445.153 2.552zm-4.298 2.017c0 .214-.015.443-.015.657 0 1.467-.138 4.08 2.462 4.08 2.157 0 2.402-1.925 2.631-3.285.138-.795.184-1.635.184-2.46 0-1.192-.046-2.705-.383-4.05-.183-.596-1.025-1.452-2.126-1.452-1.147 0-2.661.917-2.707 3.836-.015.886.015 1.788-.046 2.674zM51.064 16.715h-.412c-.016 0-.062.015-.092.015s-.03-.366-.03-1.238c0-1.42.014-3.697.014-4.645v-.412c0-.994.016-2.43.016-3.286 0-.978-.077-.932-.367-.932-.398 0-.52.657-.964 1.375-.597 1.131-1.27 2.262-1.866 3.393-.81 1.558-2.615 4.92-2.677 5.027v-.23c0-.977.031-4.996.031-7.777v-1.13h.52a.203.203 0 0 0 .199-.2c0-.137-.092-.214-.199-.214H43.28c-.122 0-.214.077-.214.214 0 .107.092.2.214.2h.428c.092 0 .108-.016.108.06V16.424c0 .566.229.719.458.719.184 0 .383-.107.413-.184.26-.718.673-1.467 1.102-2.246.091-.244 1.315-2.582 1.835-3.56.505-.978 1.836-3.377 2.004-3.591.015.015.015 2.246.015 4.492 0 2.567.015 4.676-.03 4.676-.016 0-.046-.015-.046-.015h-.444a.219.219 0 0 0-.214.214c0 .137.107.23.214.23h1.942c.123 0 .23-.093.23-.23 0-.122-.107-.214-.23-.214zM46.445 5.422a.234.234 0 0 0-.076.168c0 .214.688.459 1.025.459.52 0 1.346-.474 1.346-1.467 0-.428-.29-.947-1.163-.947-.367 0-.933.244-.933.657 0 .137.077.26.245.351.153-.26.352-.52.596-.52.26 0 .673.337.673.612 0 .55-.504.917-1.01.917-.26 0-.489-.123-.703-.23zM53.13 18.304c.84-.199 1.131-.947 1.192-1.559 0-.274-.198-.641-.49-.641-.336 0-.626.428-.626.641 0 .306.26.444.642.52 0 .504-.397.688-.719 1.04M68.517 16.975c0-.138-.077-.23-.184-.23h-.444c-.015 0-.015.016-.015.016h-.092c0-.107-.015-9.734-.03-10.116 0-.138-.062-.23-.138-.23-.168 0-.367.337-.459.505-.826 1.68-1.79 3.255-2.814 4.813-.107.153-.2.23-.275.23-.077 0-.154-.077-.245-.245-1.408-2.384-2.952-4.523-3.488-5.302-.03-.016-.046-.031-.076-.031-.046 0-.092.03-.092.046 0 .764.076 9.673.076 10.33h-.81c-.122 0-.214.076-.214.214 0 .107.092.198.214.198h1.972a.202.202 0 0 0 .2-.198c0-.138-.092-.23-.2-.23l-.764.016c0-1.024-.015-6.51-.015-8.771 1.24 1.696 2.141 3.438 3.335 5.073.55-.749 2.6-4.141 2.967-4.905v8.603h-.55c-.108 0-.2.076-.2.214 0 .107.092.198.2.198h1.972-.015c.107 0 .184-.091.184-.198M73.273 8.05h.046c.429 1.682.888 3.24 1.346 4.936h-2.722c.428-1.665.856-3.3 1.33-4.935zm4.023 8.833c0-.107-.076-.183-.183-.199H76.5c-.092-.504-2.555-9.596-2.723-10.192-.015-.076-.122-.183-.199-.183-.046 0-.153.076-.183.152-.107.337-2.753 10.208-2.891 10.208-.75 0-.918-.03-.918.214 0 .137.077.244.168.244h.2c.351 0 .749-.015 1.024-.015v.015h.397c.077-.015.154-.107.154-.244 0-.107-.062-.183-.153-.199 0 0-.199.016-.337.016-.061 0-.122-.016-.122-.016.076-.366.872-3.27.964-3.27h2.83c.014.016.03.016.03.03.153.582.765 2.767.902 3.24h-.505a.2.2 0 0 0-.168.199c0 .137.077.244.184.244h.244c.429 0 .918-.015 1.224-.015.03 0 .03.015.03.015H77.098c.107-.015.2-.107.2-.244zM87.667 16.975c0-.138-.076-.23-.184-.23h-.444c-.015 0-.015.016-.015.016h-.092c0-.107-.016-9.734-.03-10.116 0-.138-.062-.23-.138-.23-.168 0-.367.337-.46.505-.824 1.68-1.788 3.255-2.814 4.813-.107.153-.197.23-.275.23-.076 0-.153-.077-.244-.245-1.408-2.384-2.952-4.523-3.487-5.302-.031-.016-.047-.031-.076-.031-.047 0-.092.03-.092.046 0 .764.076 9.673.076 10.33h-.811c-.123 0-.213.076-.213.214 0 .107.09.198.213.198h1.973a.202.202 0 0 0 .198-.198c0-.138-.091-.23-.197-.23l-.766.016c0-1.024-.016-6.51-.016-8.771 1.24 1.696 2.142 3.438 3.336 5.073.55-.749 2.6-4.141 2.967-4.905v8.603h-.551c-.108 0-.2.076-.2.214 0 .107.092.198.2.198h1.974-.016c.108 0 .184-.091.184-.198M94.29 10.679c0 .137.014.458.014.871-.014 1.238-.045 3.362-.26 4.202-.182.734-1.07 1.284-1.605 1.284-1.47 0-1.53-1.956-1.577-2.415-.014-.106-.014-.336-.014-.626 0-.764.03-1.926.061-2.384.108-1.68-.184-4.89 1.82-4.89.78 0 1.315.78 1.407 1.406.076.825.154 2.445.154 2.552zm-4.3 2.017c0 .214-.013.443-.013.657 0 1.467-.139 4.08 2.462 4.08 2.156 0 2.4-1.925 2.63-3.285.138-.795.185-1.635.185-2.46 0-1.192-.047-2.705-.383-4.05-.184-.596-1.025-1.452-2.127-1.452-1.147 0-2.661.917-2.707 3.836-.015.886.016 1.788-.046 2.674zM98.496 16.104c-.307 0-.475.153-.475.489 0 .336.153.565.428.565.307 0 .52-.275.52-.52 0-.305-.198-.52-.473-.534zm-.352-5.058c.108 1.956-.031 3.957.305 4.003.215 0 .307-.153.307-.32-.016-1.131-.016-2.293-.016-3.485 0-1.436.016-2.995.092-4.431 0-.138-.107-.413-.367-.413-.383 0-.46.245-.46 1.04 0 1.069.108 2.98.14 3.606z"/>
        </g>
    </g>
</svg>
